<svg xmlns="http://www.w3.org/2000/svg" width="423.081" height="147.527" viewBox="0 0 317.311 110.645"><g fill="#612490"><path d="M253.8 47.602v6.53c-9.648-1.741-9.452 6.5-9.452 7.97v11.535h-7.028V48.05H244v4.75h.102c2.148-5.106 7.804-5.985 9.699-5.2M273.21 60.484c-1.218 1.067-3.753 1.118-5.983 1.524-2.23.453-4.258 1.71-4.258 4.347 0 2.688 2.078 3.344 4.41 3.344 5.625 0 5.832-4.46 5.832-6.031zm-12.163-4.824h-4.465c.406-6.742 6.438-8.77 12.316-8.77 5.223 0 11.508 1.165 11.508 7.45v13.637c0 2.382.254 4.765.914 5.832h-3.215c-2.39 0-3.984-.875-4.515-3.16-2.07 2.87-5.703 3.867-8.899 3.867-4.968 0-8.921-2.485-8.921-7.856 0-5.93 4.46-7.351 8.921-7.96 4.41-.657 8.52-.509 8.52-3.446 0-3.094-2.133-3.55-4.664-3.55-2.004 0-3.531.608-4.242 2.026-.578 1.153-1.723 1.93-3.258 1.93M162.547 52.125c-4.828 0-6.332 4.11-6.332 8.402 0 4.508 1.594 8.348 6.332 8.348 4.734 0 6.375-3.84 6.375-8.348 0-4.293-1.547-8.402-6.375-8.402m13.555 8.402c0 8.696-5.688 13.715-13.555 13.715-7.871 0-13.516-5.02-13.516-13.715 0-8.699 5.563-13.816 13.516-13.816s13.555 5.117 13.555 13.816M186.195 48.05v3.645h.145c.887-1.476 2.039-2.554 3.45-3.226 1.417-.676 2.862-1.117 4.343-1.117 1.87 0 3.406.359 4.61.87 1.195.508 2.14 1.215 2.831 2.118.692.906 1.176 2.008 1.457 3.305.278 1.296.418 2.734.418 4.312v15.68h-7V59.238c0-2.101-.328-3.672-.988-4.707-.66-1.035-1.824-1.554-3.5-1.554-1.906 0-3.29.57-4.14 1.703-.856 1.133-1.282 3-1.282 5.593v13.364h-7.027V48.05zm0 0M214.125 57.656c0-.527.422-5.61 6.02-5.61 3.71 0 5.054 2.102 5.757 5.61zm6.223-11.07c-8.34 0-13.47 6.328-13.47 13.914 0 6.555 3.759 13.82 13.47 13.82 8.808 0 11.316-5.648 12.336-8.812h-4.598c-1.059 0-1.828.418-2.547 1.305-.3.343-1.844 2.101-4.934 2.101-6.27 0-6.363-4.973-6.48-6.672h19.02c.535-7.633-3.504-15.656-12.797-15.656M120.316 61.773c1.48 0 3.118-.117 4.278 2.735 1.164 2.847 4.074 3.87 7.308 3.87 2.72 0 6.868-.8 6.868-4.452 0-3.856-5.286-4.508-10.477-5.906-5.234-1.403-10.523-3.454-10.523-10.165 0-7.304 6.816-10.808 13.19-10.808 7.364 0 14.134 3.254 14.134 11.512h-3.703c-1.828 0-3.633-.996-4.446-2.594-1.11-2.18-3.523-2.809-6.328-2.809-2.469 0-5.336 1.047-5.336 4.051 0 2.754 1.68 3.105 10.524 5.406 2.57.649 10.472 2.301 10.472 10.41 0 6.555-5.086 11.461-14.672 11.461-7.808 0-15.117-3.902-15.02-12.71zm0 0M91.305 50.465c-13.555 11.55-34.157 22.008-47.801 18.46.238.388.254.388.508.77l.21.297c13.407 21.567 50.684 5.195 54.942-8.496.969-4.644-2.293-8.195-7.86-11.031M52.989 81.16a48.21 48.21 0 0 0 1.887 1.809c3.074 2.777 6.395 5 9.785 6.242 1.906.7 3.836 1.062 5.774 1.074a14.376 14.376 0 0 0 4.379-.625c3.925-1.215 7.613-3.52 10.968-6.562.785-.707 1.512-1.461 2.254-2.22 3.266-3.448 6.164-7.589 8.57-12.073-7.847 9.507-28.835 18.691-43.617 12.355m11.98-41.328c9.438 1.664 18.516 3.117 25.594 5.496 6.891-5.297 11.731-10.918 12.032-15.558-.117-.317-.25-.633-.38-.926a18.591 18.591 0 0 0-1.066-2.082 10.318 10.318 0 0 0-1.02-1.407c-8.78 11.118-21.554 14.77-35.16 14.477m39.016-4.328c-1.55 3.473-4.742 7.52-8.953 11.586 3.352 1.57 5.989 3.492 7.621 5.969a58.816 58.816 0 0 0 1.344-7.434c.399-3.57.414-6.984-.012-10.121M86.38 48.336c-12.723-4.73-31.973-7.203-44.344-9.969-2.055 2.559-3.594 5.328-4.426 8.285a18.907 18.907 0 0 0-.691 6.211c.086 1.688.742 4.07 1.848 6.813 5.562 8.773 30.597.156 47.613-11.34m12.644-24.07c-2.566-2.196-6.382-3.453-10.87-3.899-9.86-.96-23.008 2.02-33.52 7.844-3.512 1.941-6.711 4.219-9.414 6.754 1.578.441 3.176.867 4.797 1.25 20.953 3.797 38.609.676 49.007-11.95"/></g></svg>