<?xml version="1.0" encoding="UTF-8"?>
<svg xmlns="http://www.w3.org/2000/svg" xmlns:xlink="http://www.w3.org/1999/xlink" width="317.311pt" height="110.645pt" viewBox="0 0 317.311 110.645" version="1.1">
<g id="surface1">
<path style=" stroke:none;fill-rule:nonzero;fill:rgb(38.157654%,14.030457%,56.614685%);fill-opacity:1;" d="M 253.800781 47.601562 L 253.800781 54.132812 C 244.152344 52.390625 244.347656 60.632812 244.347656 62.101562 L 244.347656 73.636719 L 237.320312 73.636719 L 237.320312 48.050781 L 244 48.050781 L 244 52.800781 L 244.101562 52.800781 C 246.25 47.695312 251.90625 46.816406 253.800781 47.601562 "/>
<path style=" stroke:none;fill-rule:nonzero;fill:rgb(38.157654%,14.030457%,56.614685%);fill-opacity:1;" d="M 273.210938 60.484375 C 271.992188 61.550781 269.457031 61.601562 267.226562 62.007812 C 264.996094 62.460938 262.96875 63.71875 262.96875 66.355469 C 262.96875 69.042969 265.046875 69.699219 267.378906 69.699219 C 273.003906 69.699219 273.210938 65.238281 273.210938 63.667969 Z M 261.046875 55.660156 L 256.582031 55.660156 C 256.988281 48.917969 263.019531 46.890625 268.898438 46.890625 C 274.121094 46.890625 280.40625 48.054688 280.40625 54.339844 L 280.40625 67.976562 C 280.40625 70.359375 280.660156 72.742188 281.320312 73.808594 L 278.105469 73.808594 C 275.714844 73.808594 274.121094 72.933594 273.589844 70.648438 C 271.519531 73.519531 267.886719 74.515625 264.691406 74.515625 C 259.722656 74.515625 255.769531 72.03125 255.769531 66.660156 C 255.769531 60.730469 260.230469 59.308594 264.691406 58.699219 C 269.101562 58.042969 273.210938 58.191406 273.210938 55.253906 C 273.210938 52.160156 271.078125 51.703125 268.546875 51.703125 C 266.542969 51.703125 265.015625 52.3125 264.304688 53.730469 C 263.726562 54.882812 262.582031 55.660156 261.046875 55.660156 "/>
<path style=" stroke:none;fill-rule:nonzero;fill:rgb(38.157654%,14.030457%,56.614685%);fill-opacity:1;" d="M 162.546875 52.125 C 157.71875 52.125 156.214844 56.234375 156.214844 60.527344 C 156.214844 65.035156 157.808594 68.875 162.546875 68.875 C 167.28125 68.875 168.921875 65.035156 168.921875 60.527344 C 168.921875 56.234375 167.375 52.125 162.546875 52.125 M 176.101562 60.527344 C 176.101562 69.222656 170.414062 74.242188 162.546875 74.242188 C 154.675781 74.242188 149.03125 69.222656 149.03125 60.527344 C 149.03125 51.828125 154.59375 46.710938 162.546875 46.710938 C 170.5 46.710938 176.101562 51.828125 176.101562 60.527344 "/>
<path style=" stroke:none;fill-rule:nonzero;fill:rgb(38.157654%,14.030457%,56.614685%);fill-opacity:1;" d="M 186.195312 48.050781 L 186.195312 51.695312 L 186.339844 51.695312 C 187.226562 50.21875 188.378906 49.140625 189.789062 48.46875 C 191.207031 47.792969 192.652344 47.351562 194.132812 47.351562 C 196.003906 47.351562 197.539062 47.710938 198.742188 48.222656 C 199.9375 48.730469 200.882812 49.4375 201.574219 50.339844 C 202.265625 51.246094 202.75 52.347656 203.03125 53.644531 C 203.308594 54.941406 203.449219 56.378906 203.449219 57.957031 L 203.449219 73.636719 L 196.449219 73.636719 L 196.449219 59.238281 C 196.449219 57.136719 196.121094 55.566406 195.460938 54.53125 C 194.800781 53.496094 193.636719 52.976562 191.960938 52.976562 C 190.054688 52.976562 188.671875 53.546875 187.820312 54.679688 C 186.964844 55.8125 186.539062 57.679688 186.539062 60.273438 L 186.539062 73.636719 L 179.511719 73.636719 L 179.511719 48.050781 Z M 186.195312 48.050781 "/>
<path style=" stroke:none;fill-rule:nonzero;fill:rgb(38.157654%,14.030457%,56.614685%);fill-opacity:1;" d="M 214.125 57.65625 C 214.125 57.128906 214.546875 52.046875 220.144531 52.046875 C 223.855469 52.046875 225.199219 54.148438 225.902344 57.65625 Z M 220.347656 46.585938 C 212.007812 46.585938 206.878906 52.914062 206.878906 60.5 C 206.878906 67.054688 210.636719 74.320312 220.347656 74.320312 C 229.15625 74.320312 231.664062 68.671875 232.683594 65.507812 L 228.085938 65.507812 C 227.027344 65.507812 226.257812 65.925781 225.539062 66.8125 C 225.238281 67.15625 223.695312 68.914062 220.605469 68.914062 C 214.335938 68.914062 214.242188 63.941406 214.125 62.242188 L 233.144531 62.242188 C 233.679688 54.609375 229.640625 46.585938 220.347656 46.585938 "/>
<path style=" stroke:none;fill-rule:nonzero;fill:rgb(38.157654%,14.030457%,56.614685%);fill-opacity:1;" d="M 120.316406 61.773438 C 121.796875 61.773438 123.433594 61.65625 124.59375 64.507812 C 125.757812 67.355469 128.667969 68.378906 131.902344 68.378906 C 134.621094 68.378906 138.769531 67.578125 138.769531 63.925781 C 138.769531 60.070312 133.484375 59.417969 128.292969 58.019531 C 123.058594 56.617188 117.769531 54.566406 117.769531 47.855469 C 117.769531 40.550781 124.585938 37.046875 130.960938 37.046875 C 138.324219 37.046875 145.09375 40.300781 145.09375 48.558594 L 141.390625 48.558594 C 139.5625 48.558594 137.757812 47.5625 136.945312 45.964844 C 135.835938 43.785156 133.421875 43.15625 130.617188 43.15625 C 128.148438 43.15625 125.28125 44.203125 125.28125 47.207031 C 125.28125 49.960938 126.960938 50.3125 135.804688 52.613281 C 138.375 53.261719 146.277344 54.914062 146.277344 63.023438 C 146.277344 69.578125 141.191406 74.484375 131.605469 74.484375 C 123.796875 74.484375 116.488281 70.582031 116.585938 61.773438 Z M 120.316406 61.773438 "/>
<path style=" stroke:none;fill-rule:nonzero;fill:rgb(38.157654%,14.030457%,56.614685%);fill-opacity:1;" d="M 91.304688 50.464844 C 77.75 62.015625 57.148438 72.472656 43.503906 68.925781 C 43.742188 69.3125 43.757812 69.3125 44.011719 69.695312 L 44.222656 69.992188 C 57.628906 91.558594 94.90625 75.1875 99.164062 61.496094 C 100.132812 56.851562 96.871094 53.300781 91.304688 50.464844 M 52.988281 81.160156 C 53.589844 81.765625 54.25 82.40625 54.875 82.96875 C 57.949219 85.746094 61.269531 87.96875 64.660156 89.210938 C 66.566406 89.910156 68.496094 90.273438 70.433594 90.285156 C 71.890625 90.296875 73.355469 90.109375 74.8125 89.660156 C 78.738281 88.445312 82.425781 86.140625 85.78125 83.097656 C 86.566406 82.390625 87.292969 81.636719 88.035156 80.878906 C 91.300781 77.429688 94.199219 73.289062 96.605469 68.804688 C 88.757812 78.3125 67.769531 87.496094 52.988281 81.160156 M 64.96875 39.832031 C 74.40625 41.496094 83.484375 42.949219 90.5625 45.328125 C 97.453125 40.03125 102.292969 34.410156 102.59375 29.769531 C 102.476562 29.453125 102.34375 29.136719 102.214844 28.84375 C 101.894531 28.109375 101.539062 27.417969 101.148438 26.761719 C 100.851562 26.265625 100.503906 25.792969 100.128906 25.355469 C 91.347656 36.472656 78.574219 40.125 64.96875 39.832031 M 103.984375 35.503906 C 102.433594 38.976562 99.242188 43.023438 95.03125 47.089844 C 98.382812 48.660156 101.019531 50.582031 102.652344 53.058594 C 103.269531 50.550781 103.722656 48.050781 103.996094 45.625 C 104.394531 42.054688 104.410156 38.640625 103.984375 35.503906 M 86.378906 48.335938 C 73.65625 43.605469 54.40625 41.132812 42.035156 38.367188 C 39.980469 40.925781 38.441406 43.695312 37.609375 46.652344 C 37.046875 48.644531 36.800781 50.710938 36.917969 52.863281 C 37.003906 54.550781 37.660156 56.933594 38.765625 59.675781 C 44.328125 68.449219 69.363281 59.832031 86.378906 48.335938 M 99.023438 24.265625 C 96.457031 22.070312 92.640625 20.8125 88.152344 20.367188 C 78.292969 19.40625 65.144531 22.386719 54.632812 28.210938 C 51.121094 30.152344 47.921875 32.429688 45.21875 34.964844 C 46.796875 35.40625 48.394531 35.832031 50.015625 36.214844 C 70.96875 40.011719 88.625 36.890625 99.023438 24.265625 "/>
</g>
</svg>
